<svg width="2137" height="1688" viewBox="0 0 2137 1688" fill="none" xmlns="http://www.w3.org/2000/svg">
<path d="M1834.63 704.805C1864.09 740.477 1896.95 746.169 1933.22 721.881C1918 693.715 1914.38 663.079 1918.43 630.806H1847.78C1850.91 659.166 1850.07 685.572 1834.63 704.805Z" fill="#FFB8B8"/>
<path d="M1951.3 1638.32L1989.09 1615.55L2005.52 1374.58V1247.46L1918.43 1245.56L1943.08 1372.69L1951.3 1638.32Z" fill="#FFB8B8"/>
<path d="M1841.75 1638.32L1803.96 1615.55L1787.53 1374.58V1247.46L1874.61 1245.56L1849.96 1372.69L1841.75 1638.32Z" fill="#FFB8B8"/>
<path d="M1783.7 1274.02L1875.71 1264.53L1890.5 1167.77L1908.58 1262.64L2008.81 1255.05C2011 1208.95 2005.44 1161.5 1992.38 1112.74L1772.2 1107.05L1783.7 1274.02Z" fill="#2F2E41"/>
<path d="M1688.06 910.609L1577.37 812.189C1576.22 811.168 1574.96 810.33 1573.62 809.699L1557.53 802.141C1544.61 796.07 1520 775.878 1532 755.087C1541.68 738.324 1578.72 768.353 1583.28 779.478C1584.72 782.979 1587.08 785.864 1590.03 787.722L1612.52 801.955C1613.07 802.301 1613.63 802.61 1614.21 802.881L1699.85 842.963C1702.22 844.074 1704.79 844.515 1707.34 844.249C1709.89 843.983 1712.35 843.018 1714.52 841.434L1730.04 830.066C1732.25 828.449 1734.77 827.477 1737.38 827.236C1739.98 826.994 1742.6 827.49 1745.01 828.681C1747.41 829.871 1749.53 831.72 1751.17 834.067C1752.82 836.415 1753.95 839.19 1754.45 842.153L1759.59 872.058C1760.32 876.364 1759.72 880.833 1757.88 884.673C1756.04 888.514 1753.08 891.478 1749.53 893.042L1703.61 913.251C1701.04 914.383 1698.26 914.734 1695.54 914.272C1692.81 913.809 1690.24 912.548 1688.06 910.609Z" fill="#FFB8B8"/>
<path d="M1708.62 838.901C1739.26 829.411 1736.05 878.849 1759.43 903.158L1805.39 861.251L1778.77 712.394C1771.62 714.751 1765.05 718.994 1759.57 724.788C1754.09 730.582 1749.86 737.768 1747.2 745.778L1708.62 838.901Z" fill="#F3B814"/>
<path d="M1765.62 1116.54H1997.31C1959.81 999.86 1963.46 879.857 1995.39 757.57C1995.92 755.54 1995.83 753.357 1995.12 751.399C1994.41 749.44 1993.13 747.828 1991.51 746.842L1925.01 706.702C1898.9 726.315 1870.85 720.288 1841.21 693.42L1768.91 716.189C1788.59 852.684 1789.15 986.377 1765.62 1116.54Z" fill="#F3B814"/>
<path d="M1823.55 1682.88L1727 1687.61C1722.8 1687.82 1718.68 1686.22 1715.43 1683.13C1712.19 1680.03 1710.05 1675.66 1709.42 1670.86C1708.8 1666 1709.76 1661.06 1712.13 1656.98C1714.5 1652.9 1718.1 1650 1722.22 1648.83L1738.6 1644.19L1802.97 1601.11C1812.5 1612.52 1825.63 1622.16 1841.69 1630.37L1841.87 1660.66C1841.91 1666.38 1840.02 1671.9 1836.6 1676.04C1833.18 1680.19 1828.51 1682.64 1823.55 1682.88Z" fill="#2F2E41"/>
<path d="M2136.04 1688H0.776733V1681.91H2137L2136.04 1688Z" fill="#3F3D56"/>
<path d="M1968.69 1681.19L2065.24 1685.92C2069.45 1686.12 2073.57 1684.53 2076.81 1681.43C2080.06 1678.34 2082.2 1673.97 2082.82 1669.17C2083.45 1664.31 2082.48 1659.36 2080.12 1655.29C2077.75 1651.21 2074.15 1648.31 2070.02 1647.14L2053.64 1642.5L1989.28 1599.42C1979.74 1610.82 1966.61 1620.46 1950.56 1628.68L1950.37 1658.96C1950.34 1664.69 1952.23 1670.2 1955.64 1674.35C1959.06 1678.5 1963.74 1680.95 1968.69 1681.19Z" fill="#2F2E41"/>
<path d="M1875.71 664.959C1904.75 664.959 1928.29 637.776 1928.29 604.243C1928.29 570.71 1904.75 543.526 1875.71 543.526C1846.67 543.526 1823.13 570.71 1823.13 604.243C1823.13 637.776 1846.67 664.959 1875.71 664.959Z" fill="#FFB8B8"/>
<path d="M1957.87 1097.56L1940.5 1136.57C1938.97 1140.01 1938.08 1143.79 1937.9 1147.65C1937.72 1151.52 1938.26 1155.38 1939.46 1158.99C1940.67 1162.6 1942.53 1165.88 1944.91 1168.6C1947.29 1171.32 1950.14 1173.43 1953.28 1174.79C1956.6 1176.23 1960.16 1176.79 1963.7 1176.44C1967.23 1176.08 1970.65 1174.81 1973.7 1172.73C1976.76 1170.64 1979.37 1167.8 1981.35 1164.39C1983.32 1160.99 1984.61 1157.12 1985.13 1153.07L1992.38 1095.67L2018.67 951.465L2017.02 879.365H1964.44C1982.38 932.991 1973.48 1012.09 1957.87 1097.56Z" fill="#FFB8B8"/>
<path d="M1956.23 886.954H2026.88L2016.63 797.477C2015.24 785.342 2011.23 773.803 2004.99 763.913C1998.74 754.022 1990.45 746.095 1980.87 740.855L1956.23 886.954Z" fill="#F3B814"/>
<path d="M1931.61 570.799C1932.66 562.689 1932.22 554.413 1930.32 546.512C1928.41 538.612 1925.09 531.263 1920.56 524.945C1911.59 512.687 1896.55 502.653 1871.61 507.387C1817.18 517.714 1801.48 570.038 1806.81 583.197C1812.15 596.356 1828.49 626.859 1828.49 626.859C1828.49 626.859 1816.49 596.664 1829.51 590.517C1842.53 584.371 1892.92 560.158 1910.51 571.066C1915.49 573.952 1919.71 578.311 1922.76 583.697C1925.8 589.083 1927.56 595.305 1927.84 601.729L1931.61 570.799Z" fill="#2F2E41"/>
<path d="M1031.66 318.108L1010.52 330.495C986.169 275.129 953.91 224.899 915.098 181.918C724.493 -29.6776 420.347 -22.7597 237.106 197.339C53.8645 417.438 59.8554 768.646 250.46 980.241C286.738 1020.59 328.298 1054.09 373.611 1079.49L363.269 1104.13C291.447 1063.86 228.953 1004.43 180.952 930.755C132.951 857.081 100.82 771.276 87.2144 680.428C73.6087 589.58 78.9187 496.298 102.706 408.288C126.493 320.279 168.074 240.068 224.013 174.284C279.953 108.499 348.646 59.0299 424.415 29.9622C500.185 0.894477 580.857 -6.93689 659.766 7.1151C738.675 21.1671 813.556 56.6991 878.222 110.775C942.888 164.852 995.483 235.92 1031.66 318.108Z" fill="white"/>
<path d="M316.441 827.379C285.345 864.729 268.373 914.813 269.256 966.613C270.14 1018.41 288.807 1067.69 321.152 1103.59C353.497 1139.5 396.87 1159.1 441.729 1158.08C486.588 1157.06 529.259 1135.5 560.354 1098.15L589.479 1063.17L345.565 792.396L316.441 827.379Z" fill="white"/>
<path d="M329.223 772.528C322.301 780.861 318.525 792.023 318.722 803.567C318.918 815.111 323.073 826.093 330.273 834.104L553.99 1082.46C561.2 1090.46 570.869 1094.83 580.87 1094.6C590.87 1094.38 600.383 1089.57 607.315 1081.25C614.247 1072.92 618.031 1061.75 617.834 1050.21C617.637 1038.66 613.475 1027.67 606.264 1019.67L382.548 771.315C375.332 763.323 365.665 758.962 355.668 759.189C345.671 759.416 336.16 764.214 329.223 772.528Z" fill="#535461"/>
<path d="M1000.21 569.825L1029.33 534.842C1060.43 497.492 1077.4 447.408 1076.52 395.608C1075.63 343.807 1056.97 294.534 1024.62 258.627C1008.61 240.848 989.715 226.885 969.027 217.537C948.338 208.188 926.258 203.636 904.046 204.142C859.187 205.162 816.516 226.718 785.421 264.068L756.296 299.051L1000.21 569.825Z" fill="white"/>
<path d="M738.46 280.976C731.538 289.309 727.762 300.471 727.959 312.015C728.156 323.559 732.31 334.541 739.51 342.553L963.227 590.906C970.439 598.901 980.105 603.262 990.101 603.031C1000.1 602.8 1009.6 597.995 1016.53 589.672C1023.46 581.349 1027.25 570.19 1027.05 558.648C1026.86 547.105 1022.7 536.124 1015.5 528.117L791.785 279.763C784.569 271.771 774.902 267.41 764.905 267.637C754.908 267.865 745.398 272.662 738.46 280.976Z" fill="#535461"/>
<path d="M832.833 854.916V834.737C832.833 834.737 909.085 785.208 971.04 834.737V853.081L832.833 854.916Z" fill="#535461"/>
<path d="M1527.05 854.916V834.737C1527.05 834.737 1603.3 785.208 1665.26 834.737V853.081L1527.05 854.916Z" fill="#535461"/>
<path d="M1061.59 853.081H986.926C986.926 853.081 967.863 827.399 904.319 829.234C840.775 831.068 828.066 853.081 828.066 853.081C828.066 853.081 765.317 901.693 751.02 962.228C751.02 962.228 673.973 1229.13 672.384 1438.26C670.796 1647.38 740.694 1676.73 777.231 1682.23C813.769 1687.74 878.902 1680.4 942.445 1495.12L969.451 1386.89C969.451 1386.89 974.217 1322.69 1031.41 1363.05C1088.6 1403.4 1139.43 1341.03 1139.43 1341.03H1353.89C1353.89 1341.03 1425.38 1392.4 1490.51 1352.04C1490.51 1352.04 1515.93 1313.52 1539.76 1443.76C1539.76 1443.76 1612.83 1711.58 1725.62 1684.07C1838.41 1656.55 1825.7 1432.75 1825.7 1432.75C1825.7 1432.75 1810.61 1090.64 1748.66 969.566C1748.66 969.566 1689.08 843.909 1649.37 838.406C1649.37 838.406 1563.59 820.062 1530.23 836.571L1511.16 854.915L1061.59 853.081Z" fill="white"/>
<path d="M888.433 1192.45C964.763 1192.45 1026.64 1120.99 1026.64 1032.85C1026.64 944.712 964.763 873.26 888.433 873.26C812.103 873.26 750.226 944.712 750.226 1032.85C750.226 1120.99 812.103 1192.45 888.433 1192.45Z" fill="#535461"/>
<path d="M1609.65 1192.45C1685.98 1192.45 1747.86 1120.99 1747.86 1032.85C1747.86 944.712 1685.98 873.26 1609.65 873.26C1533.32 873.26 1471.45 944.712 1471.45 1032.85C1471.45 1120.99 1533.32 1192.45 1609.65 1192.45Z" fill="#535461"/>
<path d="M912.516 997.266L894.089 1016.09C892.528 1017.67 890.52 1018.55 888.441 1018.55C886.362 1018.55 884.354 1017.67 882.794 1016.09L864.334 997.266C863.432 996.347 862.707 995.219 862.209 993.954C861.711 992.689 861.45 991.317 861.443 989.928V938.143C861.447 935.528 862.35 933.023 863.952 931.176C865.554 929.329 867.726 928.292 869.99 928.292H906.924C909.187 928.287 911.358 929.32 912.961 931.164C914.564 933.008 915.467 935.512 915.471 938.124V989.891C915.461 991.293 915.192 992.675 914.683 993.947C914.173 995.218 913.435 996.35 912.516 997.266Z" fill="#E6E6E6"/>
<path d="M912.516 1068.42L894.089 1049.62C892.528 1048.03 890.52 1047.16 888.441 1047.16C886.362 1047.16 884.354 1048.03 882.794 1049.62L864.334 1068.44C863.432 1069.36 862.707 1070.49 862.209 1071.75C861.711 1073.02 861.45 1074.39 861.443 1075.78V1127.51C861.439 1130.12 862.334 1132.63 863.931 1134.48C865.527 1136.33 867.696 1137.37 869.958 1137.38H906.925C909.187 1137.38 911.359 1136.35 912.961 1134.51C914.564 1132.66 915.467 1130.16 915.471 1127.55V1075.8C915.461 1074.4 915.192 1073.01 914.683 1071.74C914.173 1070.47 913.435 1069.34 912.516 1068.42Z" fill="#E6E6E6"/>
<path d="M857.63 1060.7L873.929 1039.38C875.303 1037.58 876.061 1035.26 876.061 1032.86C876.061 1030.46 875.303 1028.14 873.929 1026.34L857.63 1005.03C856.834 1003.98 855.857 1003.15 854.762 1002.57C853.667 1002 852.479 1001.7 851.276 1001.69H806.478C804.214 1001.69 802.044 1002.73 800.444 1004.58C798.845 1006.43 797.947 1008.94 797.947 1011.56V1054.21C797.943 1056.82 798.837 1059.33 800.434 1061.18C802.031 1063.03 804.199 1064.07 806.462 1064.07H851.292C852.495 1064.06 853.681 1063.75 854.774 1063.17C855.866 1062.59 856.84 1061.75 857.63 1060.7Z" fill="#E6E6E6"/>
<path d="M919.252 1060.7L902.985 1039.37C901.608 1037.57 900.848 1035.25 900.848 1032.84C900.848 1030.44 901.608 1028.12 902.985 1026.32L919.284 1005.01C920.079 1003.96 921.056 1003.13 922.152 1002.55C923.247 1001.98 924.435 1001.68 925.638 1001.67H970.436C972.699 1001.66 974.87 1002.7 976.473 1004.54C978.076 1006.38 978.979 1008.89 978.983 1011.5V1054.19C978.987 1056.8 978.093 1059.31 976.496 1061.16C974.899 1063.01 972.731 1064.05 970.468 1064.06H925.654C924.442 1064.05 923.243 1063.75 922.139 1063.18C921.035 1062.6 920.051 1061.75 919.252 1060.7Z" fill="#E6E6E6"/>
<path d="M1075.89 1322.69C1131.16 1322.69 1175.97 1270.95 1175.97 1207.12C1175.97 1143.3 1131.16 1091.55 1075.89 1091.55C1020.61 1091.55 975.806 1143.3 975.806 1207.12C975.806 1270.95 1020.61 1322.69 1075.89 1322.69Z" fill="#535461"/>
<path d="M1422.2 1322.69C1477.47 1322.69 1522.28 1270.95 1522.28 1207.12C1522.28 1143.3 1477.47 1091.55 1422.2 1091.55C1366.93 1091.55 1322.12 1143.3 1322.12 1207.12C1322.12 1270.95 1366.93 1322.69 1422.2 1322.69Z" fill="#535461"/>
<path d="M1075.89 1284.17C1112.74 1284.17 1142.61 1249.67 1142.61 1207.12C1142.61 1164.57 1112.74 1130.08 1075.89 1130.08C1039.04 1130.08 1009.17 1164.57 1009.17 1207.12C1009.17 1249.67 1039.04 1284.17 1075.89 1284.17Z" fill="#E6E6E6"/>
<path d="M1075.89 1260.32C1066.78 1260.32 1057.87 1257.2 1050.29 1251.35C1042.72 1245.51 1036.81 1237.2 1033.33 1227.48C1029.84 1217.76 1028.93 1207.06 1030.7 1196.74C1032.48 1186.42 1036.87 1176.94 1043.31 1169.51C1049.75 1162.07 1057.96 1157 1066.9 1154.95C1075.84 1152.89 1085.1 1153.95 1093.52 1157.97C1101.94 1162 1109.13 1168.82 1114.19 1177.57C1119.25 1186.31 1121.96 1196.6 1121.96 1207.12C1121.94 1221.23 1117.08 1234.75 1108.45 1244.72C1099.81 1254.69 1088.1 1260.3 1075.89 1260.32ZM1075.89 1157.59C1067.4 1157.59 1059.11 1160.5 1052.06 1165.94C1045 1171.38 1039.51 1179.12 1036.26 1188.17C1033.01 1197.22 1032.16 1207.18 1033.82 1216.78C1035.47 1226.39 1039.56 1235.22 1045.56 1242.14C1051.56 1249.07 1059.2 1253.79 1067.52 1255.7C1075.84 1257.61 1084.46 1256.63 1092.3 1252.88C1100.14 1249.13 1106.84 1242.78 1111.55 1234.64C1116.26 1226.49 1118.78 1216.92 1118.78 1207.12C1118.77 1193.99 1114.24 1181.4 1106.2 1172.12C1098.16 1162.83 1087.26 1157.61 1075.89 1157.59Z" fill="#535461"/>
<path d="M1422.2 1284.17C1459.05 1284.17 1488.92 1249.67 1488.92 1207.12C1488.92 1164.57 1459.05 1130.08 1422.2 1130.08C1385.35 1130.08 1355.48 1164.57 1355.48 1207.12C1355.48 1249.67 1385.35 1284.17 1422.2 1284.17Z" fill="#E6E6E6"/>
<path d="M1422.2 1260.32C1413.09 1260.32 1404.18 1257.2 1396.61 1251.35C1389.03 1245.51 1383.13 1237.2 1379.64 1227.48C1376.15 1217.76 1375.24 1207.06 1377.02 1196.74C1378.79 1186.42 1383.18 1176.94 1389.63 1169.51C1396.07 1162.07 1404.28 1157 1413.21 1154.95C1422.15 1152.89 1431.41 1153.95 1439.83 1157.97C1448.25 1162 1455.44 1168.82 1460.51 1177.57C1465.57 1186.31 1468.27 1196.6 1468.27 1207.12C1468.26 1221.23 1463.4 1234.75 1454.76 1244.72C1446.12 1254.69 1434.42 1260.3 1422.2 1260.32ZM1422.2 1157.59C1413.72 1157.59 1405.43 1160.5 1398.37 1165.94C1391.32 1171.38 1385.82 1179.12 1382.57 1188.17C1379.33 1197.22 1378.48 1207.18 1380.13 1216.78C1381.79 1226.39 1385.87 1235.22 1391.87 1242.14C1397.87 1249.07 1405.51 1253.79 1413.83 1255.7C1422.15 1257.61 1430.78 1256.63 1438.62 1252.88C1446.45 1249.13 1453.15 1242.78 1457.86 1234.64C1462.58 1226.49 1465.09 1216.92 1465.09 1207.12C1465.08 1193.99 1460.56 1181.4 1452.52 1172.12C1444.48 1162.83 1433.57 1157.61 1422.2 1157.59Z" fill="#535461"/>
<path d="M1252.22 1252.98C1268.01 1252.98 1280.82 1238.2 1280.82 1219.96C1280.82 1201.73 1268.01 1186.94 1252.22 1186.94C1236.43 1186.94 1223.63 1201.73 1223.63 1219.96C1223.63 1238.2 1236.43 1252.98 1252.22 1252.98Z" fill="#535461"/>
<path d="M1208.52 1116.96C1211.97 1116.96 1214.76 1113.73 1214.76 1109.75C1214.76 1105.77 1211.97 1102.54 1208.52 1102.54C1205.07 1102.54 1202.28 1105.77 1202.28 1109.75C1202.28 1113.73 1205.07 1116.96 1208.52 1116.96Z" fill="#535461"/>
<path d="M1231.9 1116.96C1235.35 1116.96 1238.15 1113.73 1238.15 1109.75C1238.15 1105.77 1235.35 1102.54 1231.9 1102.54C1228.46 1102.54 1225.66 1105.77 1225.66 1109.75C1225.66 1113.73 1228.46 1116.96 1231.9 1116.96Z" fill="#535461"/>
<path d="M1228.79 1151.17C1232.24 1151.17 1235.03 1147.94 1235.03 1143.96C1235.03 1139.98 1232.24 1136.75 1228.79 1136.75C1225.34 1136.75 1222.55 1139.98 1222.55 1143.96C1222.55 1147.94 1225.34 1151.17 1228.79 1151.17Z" fill="#535461"/>
<path d="M1250.63 1152.09C1254.14 1152.09 1256.99 1148.8 1256.99 1144.75C1256.99 1140.7 1254.14 1137.41 1250.63 1137.41C1247.12 1137.41 1244.28 1140.7 1244.28 1144.75C1244.28 1148.8 1247.12 1152.09 1250.63 1152.09Z" fill="#535461"/>
<path d="M1272.44 1151.17C1275.89 1151.17 1278.69 1147.94 1278.69 1143.96C1278.69 1139.98 1275.89 1136.75 1272.44 1136.75C1269 1136.75 1266.2 1139.98 1266.2 1143.96C1266.2 1147.94 1269 1151.17 1272.44 1151.17Z" fill="#535461"/>
<path d="M1219.43 1134.97C1222.88 1134.97 1225.68 1131.75 1225.68 1127.77C1225.68 1123.78 1222.88 1120.56 1219.43 1120.56C1215.98 1120.56 1213.19 1123.78 1213.19 1127.77C1213.19 1131.75 1215.98 1134.97 1219.43 1134.97Z" fill="#535461"/>
<path d="M1239.51 1135.58C1243.02 1135.58 1245.87 1132.29 1245.87 1128.24C1245.87 1124.19 1243.02 1120.9 1239.51 1120.9C1236 1120.9 1233.16 1124.19 1233.16 1128.24C1233.16 1132.29 1236 1135.58 1239.51 1135.58Z" fill="#535461"/>
<path d="M1260.16 1135.58C1263.67 1135.58 1266.52 1132.29 1266.52 1128.24C1266.52 1124.19 1263.67 1120.9 1260.16 1120.9C1256.65 1120.9 1253.81 1124.19 1253.81 1128.24C1253.81 1132.29 1256.65 1135.58 1260.16 1135.58Z" fill="#535461"/>
<path d="M1281.8 1134.97C1285.25 1134.97 1288.04 1131.75 1288.04 1127.77C1288.04 1123.78 1285.25 1120.56 1281.8 1120.56C1278.35 1120.56 1275.56 1123.78 1275.56 1127.77C1275.56 1131.75 1278.35 1134.97 1281.8 1134.97Z" fill="#535461"/>
<path d="M1250.63 1117.24C1254.14 1117.24 1256.99 1113.95 1256.99 1109.9C1256.99 1105.85 1254.14 1102.56 1250.63 1102.56C1247.12 1102.56 1244.28 1105.85 1244.28 1109.9C1244.28 1113.95 1247.12 1117.24 1250.63 1117.24Z" fill="#535461"/>
<path d="M1272.87 1117.24C1276.38 1117.24 1279.23 1113.95 1279.23 1109.9C1279.23 1105.85 1276.38 1102.56 1272.87 1102.56C1269.36 1102.56 1266.52 1105.85 1266.52 1109.9C1266.52 1113.95 1269.36 1117.24 1272.87 1117.24Z" fill="#535461"/>
<path d="M1291.16 1116.96C1294.61 1116.96 1297.4 1113.73 1297.4 1109.75C1297.4 1105.77 1294.61 1102.54 1291.16 1102.54C1287.71 1102.54 1284.91 1105.77 1284.91 1109.75C1284.91 1113.73 1287.71 1116.96 1291.16 1116.96Z" fill="#535461"/>
<path d="M1014.73 868.716C1011.79 868.719 1008.97 870.069 1006.89 872.468C1004.81 874.868 1003.65 878.121 1003.64 881.514V920.038C1003.65 923.431 1004.81 926.684 1006.89 929.084C1008.97 931.483 1011.79 932.833 1014.73 932.836H1022.67C1025.61 932.833 1028.43 931.483 1030.5 929.084C1032.58 926.684 1033.75 923.431 1033.75 920.038V881.514C1033.75 878.121 1032.58 874.868 1030.5 872.468C1028.43 870.069 1025.61 868.719 1022.67 868.716H1014.73Z" fill="#535461"/>
<path d="M1478.6 868.716C1475.66 868.719 1472.84 870.069 1470.76 872.468C1468.68 874.868 1467.51 878.121 1467.51 881.514V920.038C1467.51 923.431 1468.68 926.684 1470.76 929.084C1472.84 931.483 1475.66 932.833 1478.6 932.836H1486.54C1489.48 932.833 1492.29 931.483 1494.37 929.084C1496.45 926.684 1497.62 923.431 1497.62 920.038V881.514C1497.62 878.121 1496.45 874.868 1494.37 872.468C1492.29 870.069 1489.48 868.719 1486.54 868.716H1478.6Z" fill="#535461"/>
<path d="M1611.24 979.655C1632.3 979.655 1649.37 959.944 1649.37 935.63C1649.37 911.315 1632.3 891.604 1611.24 891.604C1590.19 891.604 1573.12 911.315 1573.12 935.63C1573.12 959.944 1590.19 979.655 1611.24 979.655Z" fill="#E6E6E6"/>
<path d="M1530.23 1073.21C1551.28 1073.21 1568.35 1053.5 1568.35 1029.18C1568.35 1004.87 1551.28 985.159 1530.23 985.159C1509.17 985.159 1492.1 1004.87 1492.1 1029.18C1492.1 1053.5 1509.17 1073.21 1530.23 1073.21Z" fill="#E6E6E6"/>
<path d="M1695.44 1067.71C1716.5 1067.71 1733.57 1048 1733.57 1023.68C1733.57 999.366 1716.5 979.655 1695.44 979.655C1674.38 979.655 1657.31 999.366 1657.31 1023.68C1657.31 1048 1674.38 1067.71 1695.44 1067.71Z" fill="#E6E6E6"/>
<path d="M1617.6 1164.93C1638.65 1164.93 1655.72 1145.22 1655.72 1120.9C1655.72 1096.59 1638.65 1076.88 1617.6 1076.88C1596.54 1076.88 1579.47 1096.59 1579.47 1120.9C1579.47 1145.22 1596.54 1164.93 1617.6 1164.93Z" fill="#E6E6E6"/>
<path d="M1086.61 843.034C1078.09 843.045 1069.92 846.958 1063.9 853.914C1057.88 860.87 1054.49 870.302 1054.48 880.139V1044.32C1054.49 1054.15 1057.88 1063.59 1063.9 1070.54C1069.92 1077.5 1078.09 1081.41 1086.61 1081.42H1413.07C1421.58 1081.41 1429.75 1077.5 1435.78 1070.54C1441.8 1063.59 1445.19 1054.15 1445.2 1044.32V880.139C1445.19 870.302 1441.8 860.87 1435.78 853.914C1429.75 846.958 1421.58 843.045 1413.07 843.034H1086.61Z" fill="#535461"/>
<path d="M1637.15 955.808H1585.44L1610.4 906.4L1637.15 955.808ZM1590.98 952.139H1631.41L1610.5 913.495L1590.98 952.139Z" fill="#535461"/>
<path d="M1551.67 1051.2H1508.78V1007.17H1551.67V1051.2ZM1511.96 1047.53H1548.49V1010.84H1511.96V1047.53Z" fill="#535461"/>
<path d="M1695.44 1051.2C1690.73 1051.2 1686.12 1049.58 1682.2 1046.56C1678.28 1043.54 1675.23 1039.24 1673.42 1034.21C1671.62 1029.18 1671.15 1023.65 1672.07 1018.31C1672.99 1012.98 1675.26 1008.07 1678.59 1004.22C1681.92 1000.38 1686.17 997.755 1690.79 996.694C1695.41 995.632 1700.2 996.177 1704.56 998.259C1708.91 1000.34 1712.63 1003.87 1715.25 1008.39C1717.87 1012.92 1719.27 1018.24 1719.27 1023.68C1719.26 1030.98 1716.75 1037.97 1712.28 1043.13C1707.81 1048.29 1701.76 1051.19 1695.44 1051.2ZM1695.44 999.833C1691.35 999.833 1687.36 1001.23 1683.97 1003.85C1680.57 1006.47 1677.92 1010.2 1676.36 1014.55C1674.8 1018.91 1674.39 1023.71 1675.18 1028.33C1675.98 1032.96 1677.95 1037.21 1680.84 1040.54C1683.72 1043.88 1687.4 1046.15 1691.41 1047.07C1695.42 1047.99 1699.57 1047.52 1703.34 1045.71C1707.12 1043.91 1710.34 1040.85 1712.61 1036.93C1714.88 1033.01 1716.09 1028.4 1716.09 1023.68C1716.08 1017.36 1713.91 1011.3 1710.04 1006.83C1706.16 1002.36 1700.91 999.841 1695.44 999.833Z" fill="#535461"/>
<path d="M1600.45 1098.97L1598.21 1101.56L1633.95 1142.84L1636.2 1140.24L1600.45 1098.97Z" fill="#535461"/>
<path d="M1634.77 1098.94L1598.23 1139.3L1600.43 1141.95L1636.96 1101.59L1634.77 1098.94Z" fill="#535461"/>
<path d="M337.681 423.857C250.944 451.47 155.963 472.256 121.93 440.008C140.563 404.188 151.31 368.882 152.222 334.217C152.428 318.356 157.991 303.215 167.725 292.023C174.17 284.834 181.949 279.435 190.471 276.238C198.993 273.04 208.034 272.127 216.908 273.569L239.418 277.216C240.176 277.339 240.93 277.478 241.679 277.634C252.484 279.998 262.376 286.21 269.968 295.397C277.559 304.584 282.469 316.286 284.007 328.86C288.749 366.448 304.697 398.989 337.681 423.857Z" fill="#2F2E41"/>
<path d="M421.349 780.467L455.069 788.496C457.645 789.109 460.07 790.377 462.168 792.208C464.267 794.038 465.986 796.385 467.2 799.078C468.415 801.771 469.096 804.743 469.192 807.778C469.288 810.812 468.798 813.834 467.757 816.622C466.751 819.317 465.255 821.73 463.369 823.698C461.484 825.666 459.254 827.142 456.831 828.026C454.408 828.911 451.849 829.183 449.327 828.824C446.805 828.465 444.379 827.484 442.214 825.946L390.634 789.314L303.024 551.49L348.401 536.333L421.349 780.467Z" fill="#A0616A"/>
<path d="M181.139 1092.54L155.607 1101.11L136.281 1055.02L155.934 1043.2L181.139 1092.54Z" fill="#A0616A"/>
<path d="M168.166 1290.01L136.839 1280.43L141.744 1218.29L168.703 1220.2L168.166 1290.01Z" fill="#A0616A"/>
<path d="M171.433 1049.45L138.254 1074.67L10.6433 907.988C7.87535 904.373 5.83132 900.098 4.65669 895.466C3.48207 890.835 3.20573 885.962 3.84728 881.193C4.48883 876.425 6.03254 871.878 8.36858 867.877C10.7046 863.875 13.7756 860.518 17.363 858.042L176.334 748.355L200.683 829.122L117.906 918.822L171.433 1049.45Z" fill="#2F2E41"/>
<path d="M199.375 1136.7C199.292 1136.83 199.208 1136.95 199.125 1137.08C197.004 1151.41 193.28 1164.49 184.963 1173.96C182.497 1180.38 178.069 1185.53 172.525 1188.42C166.981 1191.31 160.709 1191.74 154.906 1189.63C149.434 1187.64 144.73 1183.52 141.6 1177.97C138.469 1172.42 137.106 1165.78 137.744 1159.2L143.944 1095.21C158.817 1091.26 170.16 1081.49 175.901 1062.49L190.355 1073.86C194.632 1077.2 198.276 1081.5 201.064 1086.52C203.851 1091.54 205.724 1097.16 206.568 1103.04C207.412 1108.92 207.21 1114.94 205.973 1120.73C204.736 1126.51 202.491 1131.95 199.375 1136.7Z" fill="#2F2E41"/>
<path d="M215.104 410.153C243.308 410.153 266.172 383.751 266.172 351.183C266.172 318.615 243.308 292.213 215.104 292.213C186.9 292.213 164.036 318.615 164.036 351.183C164.036 383.751 186.9 410.153 215.104 410.153Z" fill="#A0616A"/>
<path d="M259.329 445.452L178.821 522.446L172.55 490.753L186.603 466.018C190.502 441.75 187.985 414.989 181.283 386.603L233.809 386.658C236.077 409.597 243.811 429.609 259.329 445.452Z" fill="#A0616A"/>
<path d="M281.995 647.414L173.309 685.645L164.853 641.007C144.485 609.427 135.63 580.603 148.956 557.086L142.25 521.686C161.486 504.197 176.613 486.303 184.919 467.737L251.79 437.564L300.949 441.057L315.466 497.231L281.995 647.414Z" fill="#F3B814"/>
<path d="M359.209 542.615C336.041 542.331 313.368 550.354 294.314 565.576L300.949 441.057C307.684 442.095 314.068 445.141 319.474 449.893C324.88 454.645 329.122 460.941 331.782 468.161L359.209 542.615Z" fill="#F3B814"/>
<path d="M171.093 1235.08L136.596 1225.27L141.674 886.797L187.996 828.221L177.627 753.96L170.917 670.77L284.069 638.371C322.314 718.56 345.43 791.468 311.687 837.009L171.093 1235.08Z" fill="#2F2E41"/>
<path d="M163.17 1349.36C163.015 1349.43 162.86 1349.5 162.705 1349.57C152.688 1363 141.682 1373.95 127.845 1377.8C121.776 1382.71 114.351 1384.88 106.989 1383.87C99.6262 1382.87 92.8422 1378.77 87.9319 1372.35C83.301 1366.3 80.6338 1358.59 80.3867 1350.52C80.1395 1342.45 82.3276 1334.53 86.5768 1328.12L127.877 1265.8C145.555 1272.47 162.713 1270.51 179.049 1254.84L187.954 1277.2C190.604 1283.78 192.063 1290.93 192.243 1298.19C192.423 1305.45 191.319 1312.68 189 1319.43C186.681 1326.18 183.194 1332.32 178.753 1337.46C174.312 1342.61 169.01 1346.66 163.17 1349.36Z" fill="#2F2E41"/>
<path d="M37.1522 821.18L6.8731 851.116C4.36043 853.6 2.43152 856.777 1.26521 860.351C0.0988993 863.925 -0.267084 867.782 0.20118 871.563C0.669444 875.344 1.95681 878.928 3.94393 881.981C5.93105 885.035 8.55362 887.46 11.5685 889.031C16.1072 891.397 21.2544 891.684 25.9696 889.836C30.6848 887.987 34.6162 884.14 36.9692 879.072L58.8652 831.913L159.28 620.315L121.514 612.117L37.1522 821.18Z" fill="#A0616A"/>
<path d="M165.33 626.259C145.717 619.422 127.346 615.396 113.097 620.71C116.084 578.031 122.24 539.905 142.25 521.686L170.697 525.545L165.33 626.259Z" fill="#F3B814"/>
<path d="M272.114 337.509L162.889 329.749L164.233 304.524C202.361 274.836 238.769 277.423 273.458 312.284L272.114 337.509Z" fill="#2F2E41"/>
</svg>
